HIERARCHY
ROOT Hips
{
    OFFSET 0.000000 0.000000 0.000000
    CHANNELS 6 Xposition Yposition Zposition Zrotation Xrotation Yrotation
    JOINT Spine
    {
        OFFSET -0.000000 14.517291 0.000000
        CHANNELS 3 Zrotation Xrotation Yrotation
        JOINT Spine1
        {
            OFFSET -0.000000 37.558300 0.000000
            CHANNELS 3 Zrotation Xrotation Yrotation
            JOINT Neck
            {
                OFFSET -0.000000 37.404057 3.400369
                CHANNELS 3 Zrotation Xrotation Yrotation
                JOINT Head
                {
                    OFFSET -0.000000 24.785618 -3.540803
                    CHANNELS 3 Zrotation Xrotation Yrotation
                    End Site
                    {
                        OFFSET -0.000000 35.408028 0.000000
                    }
                }
            }
            JOINT LeftShoulder
            {
                OFFSET 6.992933 33.973492 -0.192664
                CHANNELS 3 Zrotation Xrotation Yrotation
                JOINT LeftArm
                {
                    OFFSET 21.527611 0.000000 0.000000
                    CHANNELS 3 Zrotation Xrotation Yrotation
                    JOINT LeftForeArm
                    {
                        OFFSET 56.353916 0.000000 0.000000
                        CHANNELS 3 Zrotation Xrotation Yrotation
                        JOINT LeftHand
                        {
                            OFFSET 47.774071 0.000000 0.000000
                            CHANNELS 3 Zrotation Xrotation Yrotation
                            End Site
                            {
                                OFFSET 26.556021 0.000000 0.000000
                            }
                        }
                    }
                }
            }
            JOINT RightShoulder
            {
                OFFSET -7.065357 33.973492 -0.192664
                CHANNELS 3 Zrotation Xrotation Yrotation
                JOINT RightArm
                {
                    OFFSET -21.527611 0.000000 0.000000
                    CHANNELS 3 Zrotation Xrotation Yrotation
                    JOINT RightForeArm
                    {
                        OFFSET -56.353916 0.000000 0.000000
                        CHANNELS 3 Zrotation Xrotation Yrotation
                        JOINT RightHand
                        {
                            OFFSET -47.774071 0.000000 0.000000
                            CHANNELS 3 Zrotation Xrotation Yrotation
                            End Site
                            {
                                OFFSET -26.556021 0.000000 0.000000
                            }
                        }
                    }
                }
            }
        }
    }
    JOINT LeftUpLeg
    {
        OFFSET 17.704014 0.000000 0.000000
        CHANNELS 3 Zrotation Xrotation Yrotation
        JOINT LeftLeg
        {
            OFFSET -0.000000 -81.181816 0.000000
            CHANNELS 3 Zrotation Xrotation Yrotation
            JOINT LeftFoot
            {
                OFFSET -0.000000 -62.821102 0.000000
                CHANNELS 3 Zrotation Xrotation Yrotation
                JOINT LeftToeBase
                {
                    OFFSET -0.000000 -11.507608 26.556021
                    CHANNELS 3 Zrotation Xrotation Yrotation
                    End Site
                    {
                        OFFSET -0.000000 0.000000 7.081605
                    }
                }
            }
        }
    }
    JOINT RightUpLeg
    {
        OFFSET -17.704014 0.000000 0.000000
        CHANNELS 3 Zrotation Xrotation Yrotation
        JOINT RightLeg
        {
            OFFSET -0.000000 -81.181816 0.000000
            CHANNELS 3 Zrotation Xrotation Yrotation
            JOINT RightFoot
            {
                OFFSET -0.000000 -62.821102 0.000000
                CHANNELS 3 Zrotation Xrotation Yrotation
                JOINT RightToeBase
                {
                    OFFSET -0.000000 -11.507608 26.556021
                    CHANNELS 3 Zrotation Xrotation Yrotation
                    End Site
                    {
                        OFFSET -0.000000 0.000000 7.081605
                    }
                }
            }
        }
    }
}
MOTION
Frames:    10
Frame Time:    0.008333
14.388773    154.884583    -119.685028    -0.413194    -5.510768    38.857746    0.063612    -2.373719    -5.808324    -6.809640    6.434740    -1.554866    -6.655184    -9.190090    -20.282734    19.331379    13.380601    -19.229633    13.899148    0.743880    -32.055210    -26.313299    15.677747    -81.655067    -5.106535    -22.069687    -84.359802    -3.842659    -25.923286    -12.306247    -20.908073    -12.084325    -2.414722    35.972683    -17.021276    88.586914    2.357737    -5.653399    26.868101    -2.522859    -6.862389    29.000874    18.147560    -0.910426    3.328001    -14.254007    36.130226    -17.405632    4.623057    -28.739609    43.620510    0.000000    0.000000    0.000000    -17.159815    -18.494661    -10.919744    8.813563    22.181324    -14.941102    5.144476    11.120253    -13.367891    0.000000    0.000000    0.000000    
14.356907    154.887909    -119.688293    -0.463051    -5.501587    38.869144    0.125981    -2.388650    -5.685628    -6.803781    6.379455    -1.518129    -6.647197    -8.895803    -20.361187    19.358997    13.061981    -19.275114    13.680823    0.931095    -31.645317    -26.903812    16.142437    -80.483932    -5.949598    -20.416300    -85.460152    -3.655960    -25.147539    -11.635616    -20.932236    -12.027831    -2.440093    35.931072    -17.062832    88.332520    2.346926    -5.624207    26.934204    -2.568908    -6.842087    28.924135    18.187899    -0.985535    3.299292    -14.263584    36.171841    -17.393824    4.613195    -28.745106    43.635471    0.000000    0.000000    0.000000    -17.125046    -18.505463    -10.943608    8.816523    22.126951    -14.946694    5.150247    11.136224    -13.358843    0.000000    0.000000    0.000000    
14.327842    154.889328    -119.693077    -0.513105    -5.492501    38.878590    0.200546    -2.410683    -5.562054    -6.825626    6.311695    -1.480412    -6.612415    -8.515324    -20.440817    19.413105    12.675782    -19.320383    13.467676    1.071296    -31.331524    -27.338369    16.691076    -79.187790    -6.724263    -19.003244    -86.675774    -3.402653    -24.598061    -11.106785    -20.944145    -11.938393    -2.428912    35.928436    -17.144186    88.063416    2.385804    -5.563495    27.006083    -2.650287    -6.813508    28.934025    18.227446    -1.064915    3.262947    -14.281993    36.224846    -17.368912    4.615827    -28.749813    43.654232    0.000000    0.000000    0.000000    -17.090778    -18.520073    -10.984184    8.812378    22.080988    -14.952621    5.116707    11.165704    -13.322389    0.000000    0.000000    0.000000    
14.296180    154.888336    -119.691513    -0.572149    -5.488019    38.892281    0.288101    -2.437267    -5.436446    -6.865479    6.240713    -1.441357    -6.567079    -8.177176    -20.511223    19.463184    12.360072    -19.367868    13.313212    1.242716    -30.981142    -27.729071    17.138790    -77.945313    -7.544164    -17.613760    -87.784966    -3.130148    -24.143167    -10.441639    -20.902802    -11.835706    -2.423701    35.847805    -17.224840    87.795486    2.414075    -5.517237    27.055557    -2.648142    -6.777285    29.043188    18.281952    -1.145337    3.217147    -14.316708    36.271484    -17.325760    4.617812    -28.753927    43.677109    0.000000    0.000000    0.000000    -17.048161    -18.524382    -11.018618    8.826802    22.015966    -14.949776    5.096390    11.174120    -13.322125    0.000000    0.000000    0.000000    
14.262372    154.885361    -119.692398    -0.632395    -5.487541    38.897766    0.375996    -2.448692    -5.287975    -6.894840    6.141679    -1.396945    -6.521815    -7.837515    -20.585463    19.510344    12.077272    -19.424919    13.164604    1.378380    -30.722382    -28.139294    17.675632    -76.584404    -8.293342    -16.393171    -88.959511    -2.789381    -23.836779    -9.790189    -20.854755    -11.726687    -2.424274    35.708748    -17.289433    87.509331    2.430433    -5.486040    27.094116    -2.584268    -6.734291    29.033215    18.340311    -1.219047    3.179811    -14.351948    36.313152    -17.267040    4.599303    -28.773407    43.671871    0.000000    0.000000    0.000000    -16.992699    -18.543943    -11.048808    8.812238    21.973669    -14.952739    5.100921    11.194975    -13.308887    0.000000    0.000000    0.000000    
14.228982    154.880188    -119.692039    -0.684644    -5.491579    38.904148    0.457464    -2.449918    -5.154664    -6.895314    6.026621    -1.360083    -6.577270    -7.472925    -20.667957    19.655157    11.831807    -19.473108    12.994218    1.542286    -30.448990    -28.497814    18.185572    -75.171165    -8.984512    -15.212933    -90.124649    -2.566326    -23.537853    -9.269864    -20.847179    -11.605239    -2.373334    35.632473    -17.375011    87.234673    2.461556    -5.422140    27.122288    -2.675194    -6.702128    29.036087    18.396082    -1.281984    3.131359    -14.393979    36.348289    -17.203388    4.605242    -28.786535    43.672981    0.000000    0.000000    0.000000    -16.944918    -18.554705    -11.074775    8.815059    21.934542    -14.935497    5.070348    11.198501    -13.305800    0.000000    0.000000    0.000000    
14.204140    154.866623    -119.688377    -0.721152    -5.505243    38.917900    0.529580    -2.446814    -5.000256    -6.880613    5.926138    -1.316011    -6.675670    -7.200231    -20.852182    19.804106    11.764970    -19.645716    12.818435    1.657528    -30.260210    -28.878433    18.720535    -73.650955    -9.606440    -14.086639    -91.307930    -2.418004    -23.254583    -8.840388    -20.843189    -11.526451    -2.334407    35.563450    -17.454651    86.934433    2.565883    -5.283491    27.095711    -2.810030    -6.624539    29.098108    18.443316    -1.329056    3.106605    -14.413996    36.396065    -17.147026    4.591736    -28.818230    43.650105    0.000000    0.000000    0.000000    -16.909958    -18.547571    -11.111735    8.823130    21.905146    -14.943341    5.042241    11.197054    -13.284261    0.000000    0.000000    0.000000    
14.179977    154.855301    -119.685699    -0.753072    -5.525352    38.932499    0.603267    -2.419405    -4.839962    -6.885491    5.809223    -1.269880    -6.691471    -6.930199    -20.936321    19.892265    11.638870    -19.721769    12.717777    1.810611    -30.037992    -29.131866    19.301895    -72.238876    -9.960728    -13.193203    -92.396637    -2.319854    -22.942026    -8.527022    -20.801979    -11.411026    -2.307718    35.464863    -17.553690    86.650497    2.668933    -5.174445    27.088028    -2.839182    -6.548457    29.126154    18.489170    -1.363274    3.055423    -14.446587    36.429741    -17.090569    4.582447    -28.851252    43.646408    0.000000    0.000000    0.000000    -16.875473    -18.536367    -11.148347    8.825411    21.882133    -14.944775    5.037380    11.197421    -13.255501    0.000000    0.000000    0.000000    
14.157481    154.842377    -119.681564    -0.774268    -5.541575    38.957146    0.670868    -2.387279    -4.677158    -6.877930    5.695249    -1.223252    -6.773237    -6.699140    -21.044567    20.019053    11.576282    -19.817039    12.578653    1.953523    -29.860634    -29.259024    19.953449    -70.789520    -10.155616    -12.550008    -93.509361    -2.426437    -22.714848    -8.326208    -20.812855    -11.333255    -2.315700    35.374607    -17.584120    86.365875    2.743282    -5.059615    27.048424    -2.898802    -6.466776    29.151224    18.523613    -1.394953    3.003659    -14.465138    36.459187    -17.056883    4.619356    -28.858402    43.650158    0.000000    0.000000    0.000000    -16.858006    -18.517937    -11.194826    8.834115    21.867016    -14.965538    5.014868    11.180743    -13.202703    0.000000    0.000000    0.000000    
14.133657    154.827484    -119.677010    -0.786883    -5.562950    38.981586    0.812173    -2.321579    -4.526286    -6.991061    5.541222    -1.177593    -6.845730    -6.451002    -21.149048    20.181616    11.497506    -19.907383    12.465997    2.116606    -29.617676    -29.427679    20.504145    -69.337219    -10.287182    -11.772880    -94.557961    -2.425758    -22.305058    -8.129268    -20.831640    -11.229684    -2.361589    35.417046    -17.611895    86.175591    2.886332    -4.926808    26.986513    -2.980121    -6.387560    29.139954    18.551697    -1.418558    2.955573    -14.482905    36.493279    -17.035427    4.636431    -28.882458    43.677860    0.000000    0.000000    0.000000    -16.846037    -18.492098    -11.238948    8.846484    21.857262    -14.947734    4.986736    11.151174    -13.167537    0.000000    0.000000    0.000000    
